<mxfile host="www.draw.io" modified="2020-03-05T16:18:54.909Z" agent="Mozilla/5.0 (Macintosh; Intel Mac OS X 10_15_3) AppleWebKit/605.1.15 (KHTML, like Gecko) Version/13.0.5 Safari/605.1.15" etag="LwBH7Cu8dnZrEtpKASZi" version="12.8.0" type="github">
  <diagram id="ui8iMII7ni_Ps2EaWUE5" name="Page-1">
    <mxGraphModel dx="946" dy="561" grid="0" gridSize="10" guides="1" tooltips="1" connect="1" arrows="1" fold="1" page="1" pageScale="1" pageWidth="850" pageHeight="1100" math="0" shadow="0">
      <root>
        <mxCell id="0" />
        <mxCell id="1" parent="0" />
        <mxCell id="F358hIdaJYuTN_EHL9Ia-22" value="" style="rounded=0;whiteSpace=wrap;html=1;align=center;fillColor=#D4E1F5;strokeColor=none;" vertex="1" parent="1">
          <mxGeometry x="24" y="55" width="813" height="625" as="geometry" />
        </mxCell>
        <mxCell id="F358hIdaJYuTN_EHL9Ia-3" style="edgeStyle=orthogonalEdgeStyle;rounded=0;orthogonalLoop=1;jettySize=auto;html=1;exitX=1;exitY=0.5;exitDx=0;exitDy=0;entryX=0;entryY=0.5;entryDx=0;entryDy=0;labelBorderColor=none;strokeColor=#0000FF;" edge="1" parent="1" source="F358hIdaJYuTN_EHL9Ia-1" target="F358hIdaJYuTN_EHL9Ia-2">
          <mxGeometry relative="1" as="geometry" />
        </mxCell>
        <mxCell id="F358hIdaJYuTN_EHL9Ia-24" value="start()" style="text;html=1;align=center;verticalAlign=middle;resizable=0;points=[];labelBackgroundColor=#D4E1F5;fontFamily=Courier New;" vertex="1" connectable="0" parent="F358hIdaJYuTN_EHL9Ia-3">
          <mxGeometry x="-0.0411" y="-1" relative="1" as="geometry">
            <mxPoint as="offset" />
          </mxGeometry>
        </mxCell>
        <mxCell id="F358hIdaJYuTN_EHL9Ia-1" value="新建状态" style="ellipse;whiteSpace=wrap;html=1;fillColor=#6d8764;strokeColor=#3A5431;fontColor=#ffffff;" vertex="1" parent="1">
          <mxGeometry x="44" y="336" width="120" height="80" as="geometry" />
        </mxCell>
        <mxCell id="F358hIdaJYuTN_EHL9Ia-6" value="&lt;span style=&quot;background-color: rgb(212 , 225 , 245)&quot;&gt;获取执行权&lt;/span&gt;" style="edgeStyle=orthogonalEdgeStyle;rounded=0;orthogonalLoop=1;jettySize=auto;html=1;exitX=1;exitY=0;exitDx=0;exitDy=0;entryX=0;entryY=0;entryDx=0;entryDy=0;strokeColor=#0000FF;" edge="1" parent="1" source="F358hIdaJYuTN_EHL9Ia-2" target="F358hIdaJYuTN_EHL9Ia-4">
          <mxGeometry relative="1" as="geometry" />
        </mxCell>
        <mxCell id="F358hIdaJYuTN_EHL9Ia-2" value="就绪状态" style="ellipse;whiteSpace=wrap;html=1;fillColor=#e3c800;strokeColor=#B09500;fontColor=#ffffff;" vertex="1" parent="1">
          <mxGeometry x="237" y="336" width="120" height="80" as="geometry" />
        </mxCell>
        <mxCell id="F358hIdaJYuTN_EHL9Ia-7" value="&lt;span style=&quot;background-color: rgb(212 , 225 , 245)&quot;&gt;失去执行权&lt;/span&gt;" style="edgeStyle=orthogonalEdgeStyle;rounded=0;orthogonalLoop=1;jettySize=auto;html=1;exitX=0;exitY=1;exitDx=0;exitDy=0;entryX=0.933;entryY=0.85;entryDx=0;entryDy=0;entryPerimeter=0;strokeColor=#0000FF;" edge="1" parent="1" source="F358hIdaJYuTN_EHL9Ia-4" target="F358hIdaJYuTN_EHL9Ia-2">
          <mxGeometry relative="1" as="geometry" />
        </mxCell>
        <mxCell id="F358hIdaJYuTN_EHL9Ia-8" value="&lt;span style=&quot;background-color: rgb(212 , 225 , 245)&quot;&gt;run()结束&lt;/span&gt;" style="edgeStyle=orthogonalEdgeStyle;rounded=0;orthogonalLoop=1;jettySize=auto;html=1;entryX=0;entryY=0.5;entryDx=0;entryDy=0;strokeColor=#0000FF;" edge="1" parent="1" source="F358hIdaJYuTN_EHL9Ia-4" target="F358hIdaJYuTN_EHL9Ia-5">
          <mxGeometry relative="1" as="geometry" />
        </mxCell>
        <mxCell id="F358hIdaJYuTN_EHL9Ia-10" value="&lt;span style=&quot;&quot;&gt;sleep()&lt;br&gt;join()&lt;br&gt;IO等&lt;/span&gt;" style="edgeStyle=orthogonalEdgeStyle;rounded=0;orthogonalLoop=1;jettySize=auto;html=1;exitX=0.5;exitY=0;exitDx=0;exitDy=0;entryX=0.5;entryY=1;entryDx=0;entryDy=0;align=left;labelBackgroundColor=#D4E1F5;strokeColor=#0000FF;" edge="1" parent="1" source="F358hIdaJYuTN_EHL9Ia-4" target="F358hIdaJYuTN_EHL9Ia-9">
          <mxGeometry relative="1" as="geometry" />
        </mxCell>
        <mxCell id="F358hIdaJYuTN_EHL9Ia-4" value="运行状态" style="ellipse;whiteSpace=wrap;html=1;fillColor=#76608a;strokeColor=#432D57;fontColor=#ffffff;" vertex="1" parent="1">
          <mxGeometry x="443" y="336" width="120" height="80" as="geometry" />
        </mxCell>
        <mxCell id="F358hIdaJYuTN_EHL9Ia-5" value="死亡状态" style="ellipse;whiteSpace=wrap;html=1;fillColor=#a0522d;strokeColor=#6D1F00;fontColor=#ffffff;" vertex="1" parent="1">
          <mxGeometry x="649" y="336" width="120" height="80" as="geometry" />
        </mxCell>
        <mxCell id="F358hIdaJYuTN_EHL9Ia-9" value="其他阻塞" style="ellipse;whiteSpace=wrap;html=1;gradientColor=#d5739d;fillColor=#e6d0de;strokeColor=#996185;" vertex="1" parent="1">
          <mxGeometry x="443" y="126" width="120" height="80" as="geometry" />
        </mxCell>
        <mxCell id="F358hIdaJYuTN_EHL9Ia-12" value="" style="endArrow=classic;html=1;exitX=0;exitY=1;exitDx=0;exitDy=0;entryX=0.5;entryY=0;entryDx=0;entryDy=0;strokeColor=#0000FF;" edge="1" parent="1" source="F358hIdaJYuTN_EHL9Ia-9" target="F358hIdaJYuTN_EHL9Ia-2">
          <mxGeometry width="50" height="50" relative="1" as="geometry">
            <mxPoint x="399" y="415" as="sourcePoint" />
            <mxPoint x="449" y="365" as="targetPoint" />
          </mxGeometry>
        </mxCell>
        <mxCell id="F358hIdaJYuTN_EHL9Ia-13" value="sleep()时间到&lt;br&gt;join()线程完毕&lt;br&gt;IO完毕" style="text;html=1;align=left;verticalAlign=middle;resizable=0;points=[];labelBackgroundColor=#D4E1F5;" vertex="1" connectable="0" parent="F358hIdaJYuTN_EHL9Ia-12">
          <mxGeometry x="-0.1066" y="-1" relative="1" as="geometry">
            <mxPoint as="offset" />
          </mxGeometry>
        </mxCell>
        <mxCell id="F358hIdaJYuTN_EHL9Ia-14" value="同步阻塞" style="ellipse;whiteSpace=wrap;html=1;align=center;fillColor=#fa6800;strokeColor=#C73500;fontColor=#ffffff;" vertex="1" parent="1">
          <mxGeometry x="344" y="518" width="120" height="80" as="geometry" />
        </mxCell>
        <mxCell id="F358hIdaJYuTN_EHL9Ia-15" value="&lt;span style=&quot;background-color: rgb(212 , 225 , 245)&quot;&gt;锁可用&lt;/span&gt;" style="endArrow=classic;html=1;exitX=0;exitY=0;exitDx=0;exitDy=0;entryX=0.675;entryY=1;entryDx=0;entryDy=0;entryPerimeter=0;strokeColor=#0000FF;" edge="1" parent="1" source="F358hIdaJYuTN_EHL9Ia-14" target="F358hIdaJYuTN_EHL9Ia-2">
          <mxGeometry width="50" height="50" relative="1" as="geometry">
            <mxPoint x="399" y="546" as="sourcePoint" />
            <mxPoint x="449" y="496" as="targetPoint" />
          </mxGeometry>
        </mxCell>
        <mxCell id="F358hIdaJYuTN_EHL9Ia-17" value="&lt;span style=&quot;background-color: rgb(212 , 225 , 245)&quot;&gt;notify()&lt;/span&gt;" style="edgeStyle=orthogonalEdgeStyle;rounded=0;orthogonalLoop=1;jettySize=auto;html=1;entryX=1;entryY=0.5;entryDx=0;entryDy=0;strokeColor=#0000FF;" edge="1" parent="1" source="F358hIdaJYuTN_EHL9Ia-16" target="F358hIdaJYuTN_EHL9Ia-14">
          <mxGeometry relative="1" as="geometry" />
        </mxCell>
        <mxCell id="F358hIdaJYuTN_EHL9Ia-16" value="等待阻塞" style="ellipse;whiteSpace=wrap;html=1;align=center;fillColor=#f0a30a;strokeColor=#BD7000;fontColor=#ffffff;" vertex="1" parent="1">
          <mxGeometry x="561" y="516" width="120" height="80" as="geometry" />
        </mxCell>
        <mxCell id="F358hIdaJYuTN_EHL9Ia-19" value="&lt;span style=&quot;background-color: rgb(212 , 225 , 245)&quot;&gt;synchronized&lt;/span&gt;" style="endArrow=classic;html=1;exitX=0.5;exitY=1;exitDx=0;exitDy=0;entryX=1;entryY=0;entryDx=0;entryDy=0;strokeColor=#0000FF;" edge="1" parent="1" source="F358hIdaJYuTN_EHL9Ia-4" target="F358hIdaJYuTN_EHL9Ia-14">
          <mxGeometry width="50" height="50" relative="1" as="geometry">
            <mxPoint x="399" y="693" as="sourcePoint" />
            <mxPoint x="449" y="643" as="targetPoint" />
          </mxGeometry>
        </mxCell>
        <mxCell id="F358hIdaJYuTN_EHL9Ia-21" value="&lt;span style=&quot;background-color: rgb(212 , 225 , 245)&quot;&gt;wait()&lt;/span&gt;" style="endArrow=classic;html=1;exitX=0.5;exitY=1;exitDx=0;exitDy=0;entryX=0;entryY=0;entryDx=0;entryDy=0;strokeColor=#0000FF;" edge="1" parent="1" source="F358hIdaJYuTN_EHL9Ia-4" target="F358hIdaJYuTN_EHL9Ia-16">
          <mxGeometry width="50" height="50" relative="1" as="geometry">
            <mxPoint x="526" y="524" as="sourcePoint" />
            <mxPoint x="449" y="643" as="targetPoint" />
          </mxGeometry>
        </mxCell>
        <mxCell id="F358hIdaJYuTN_EHL9Ia-23" value="&lt;font style=&quot;font-size: 39px&quot;&gt;线程状态转换图&lt;/font&gt;&lt;br&gt;&lt;div style=&quot;text-align: justify&quot;&gt;&lt;span style=&quot;font-size: 8px&quot;&gt;作者：独孤求败&lt;/span&gt;&lt;/div&gt;&lt;font style=&quot;font-size: 8px&quot;&gt;&lt;div style=&quot;text-align: justify&quot;&gt;邮箱：david.tian@live.com&lt;/div&gt;&lt;/font&gt;" style="text;html=1;strokeColor=none;fillColor=none;align=center;verticalAlign=middle;whiteSpace=wrap;rounded=0;" vertex="1" parent="1">
          <mxGeometry x="51" y="78" width="321" height="87" as="geometry" />
        </mxCell>
      </root>
    </mxGraphModel>
  </diagram>
</mxfile>
